<svg xmlns="http://www.w3.org/2000/svg" width="220" height="220" viewBox="0 0 220 220">
  <defs>
    <radialGradient id="ringGlow" cx="50%" cy="50%" r="50%">
      <stop offset="0%" stop-color="#00ff00" stop-opacity="0.9" />
      <stop offset="65%" stop-color="#00ff00" stop-opacity="0.4" />
      <stop offset="100%" stop-color="#00ff00" stop-opacity="0" />
    </radialGradient>
  </defs>
  <circle cx="110" cy="110" r="108" fill="rgba(0,0,0,0.65)" stroke="#00ff00" stroke-width="8" />
  <circle cx="110" cy="110" r="85" fill="url(#ringGlow)" stroke="rgba(0,255,0,0.45)" stroke-width="6" />
  <g fill="none" stroke="#00ff00" stroke-width="10" stroke-linecap="round">
    <path d="M82 66c20 16 36 16 56 0" />
    <path d="M82 154c20-16 36-16 56 0" />
  </g>
  <g fill="#00ff00">
    <path d="M92 52 64 12h32l16 28-20 12z" opacity="0.7" />
    <path d="M128 168 156 208h-32l-16-28 20-12z" opacity="0.7" />
  </g>
  <circle cx="110" cy="110" r="54" fill="rgba(0,0,0,0.75)" stroke="rgba(0,255,0,0.5)" stroke-width="4" />
  <path fill="#00ff00" d="M110 70c-18 0-26 12-36 22 10 10 18 22 36 22s26-12 36-22c-10-10-18-22-36-22zm0 36c-12 0-18-8-26-16 8-8 14-16 26-16s18 8 26 16c-8 8-14 16-26 16z" />
</svg>
